<svg version="1.1" xmlns="http://www.w3.org/2000/svg" viewBox="-11.000001 -5.625001 38.000002 27.625002000000002" fill="none" stroke="black" stroke-width="0.6%" vector-effect="non-scaling-stroke">
    <path d="M -10 -3 L -10 -4 L -3 -4 L -3 -4.625 L 3 -4.625 L 3 -4 L 10 -4 L 10 -3 L 10 3 L 10 4 L 3 4 L 3 4.625 L -3 4.625 L -3 4 L -10 4 L -10 3 L -10 -3 Z" />
    <path d="M -3 21 L -10 21 L -10 18 L -10 12 L -10 9 L -3 9 L 3 9 L 10 9 L 10 12 L 10 18 L 10 21 L 3 21 L -3 21 Z" />
    <path d="M 23 -4 L 26 -4 L 26 4 L 23 4 L 23 4.625 L 17 4.625 L 17 4 L 14 4 L 14 -4 L 17 -4 L 17 -4.625 L 23 -4.625 L 23 -4 Z" />
</svg>