<svg version="1.1" xmlns="http://www.w3.org/2000/svg" viewBox="-11.000001 -5.625001 36.250002 24.125002000000002" fill="none" stroke="black" stroke-width="0.6%" vector-effect="non-scaling-stroke">
    <path d="M 3 4.125 L 3 4.625 L -3 4.625 L -3 4.125 A 0.125 0.125 0 0 1 -3.125 4 L -10 4 L -10 3 L -10 -3 L -10 -4 L -3.125 -4 A 0.125 0.125 0 0 1 -3 -4.125 L -3 -4.625 L 3 -4.625 L 3 -4.125 A 0.125 0.125 0 0 1 3.125 -4 L 10 -4 L 10 -3 L 10.005 -3 L 10.005 3 L 10 3 L 10 4 L 3.125 4 A 0.125 0.125 0 0 1 3 4.125 Z" />
    <path d="M -3 17.5 L -10 17.5 L -10 14.5 L -10 8.5 L -10 5.5 L -3 5.5 L 3 5.5 L 10 5.5 L 10 8.5 L 10 14.5 L 10 17.5 L 3 17.5 L -3 17.5 Z" />
    <path d="M 20.5 4.125 L 20.5 4.625 L 14.5 4.625 L 14.5 4.125 A 0.125 0.125 0 0 1 14.375 4 L 11.5 4 L 11.5 3.125 A 0.125 0.125 0 0 1 11.375 3 L 10.75 3 L 10.75 -3 L 11.375 -3 A 0.125 0.125 0 0 1 11.5 -3.125 L 11.5 -4 L 14.375 -4 A 0.125 0.125 0 0 1 14.5 -4.125 L 14.5 -4.625 L 20.5 -4.625 L 20.5 -4.125 A 0.125 0.125 0 0 1 20.625 -4 L 23.5 -4 L 23.5 -3.125 A 0.125 0.125 0 0 1 23.625 -3 L 24.25 -3 L 24.25 3 L 23.625 3 A 0.125 0.125 0 0 1 23.5 3.125 L 23.5 4 L 20.625 4 A 0.125 0.125 0 0 1 20.5 4.125 Z" />
</svg>