<svg version="1.1" xmlns="http://www.w3.org/2000/svg" viewBox="-11.000001 -5.625001 41.625002 36.630002000000005" fill="none" stroke="black" stroke-width="0.6%" vector-effect="non-scaling-stroke">
    <path d="M 10.875 23 L 10.375 23 L 10.375 17 L 10.875 17 A 0.125 0.125 0 0 1 11 16.875 L 11 10 L 12 10 L 18 10 L 19 10 L 19 16.875 A 0.125 0.125 0 0 1 19.125 17 L 19.625 17 L 19.625 23 L 19.125 23 A 0.125 0.125 0 0 1 19 23.125 L 19 30 L 18 30 L 18 30.005 L 12 30.005 L 12 30 L 11 30 L 11 23.125 A 0.125 0.125 0 0 1 10.875 23 Z" />
    <path d="M 10.875 5.5 L 10.375 5.5 L 10.375 -0.5 L 10.875 -0.5 A 0.125 0.125 0 0 1 11 -0.625 L 11 -3.5 L 11.875 -3.5 A 0.125 0.125 0 0 1 12 -3.625 L 12 -4.25 L 18 -4.25 L 18 -3.625 A 0.125 0.125 0 0 1 18.125 -3.5 L 19 -3.5 L 19 -0.625 A 0.125 0.125 0 0 1 19.125 -0.5 L 19.625 -0.5 L 19.625 5.5 L 19.125 5.5 A 0.125 0.125 0 0 1 19 5.625 L 19 8.5 L 18.125 8.5 A 0.125 0.125 0 0 1 18 8.625 L 18 9.25 L 12 9.25 L 12 8.625 A 0.125 0.125 0 0 1 11.875 8.5 L 11 8.5 L 11 5.625 A 0.125 0.125 0 0 1 10.875 5.5 Z" />
    <path d="M 18.125 -3.5 A 0.125 0.125 0 0 1 17.94007 -3.3903 A 0.125 0.125 0 1 1 18.125 -3.5 Z" />
    <path d="M -3 17 L -10 17 L -10 14 L -10 8 L -10 5 L -3 5 L 3 5 L 10 5 L 10 8 L 10 14 L 10 17 L 3 17 L -3 17 Z" />
    <path d="M 3 4.125 L 3 4.625 L -3 4.625 L -3 4.125 A 0.125 0.125 0 0 1 -3.125 4 L -10 4 L -10 3 L -10 -3 L -10 -4 L -3.125 -4 A 0.125 0.125 0 0 1 -3 -4.125 L -3 -4.625 L 3 -4.625 L 3 -4.125 A 0.125 0.125 0 0 1 3.125 -4 L 10 -4 L 10 -3 L 10.005 -3 L 10.005 3 L 10 3 L 10 4 L 3.125 4 A 0.125 0.125 0 0 1 3 4.125 Z" />
    <path d="M -3 29.5 L -10 29.5 L -10 26.5 L -10 20.5 L -10 17.5 L -3 17.5 L 3 17.5 L 10 17.5 L 10 20.5 L 10 26.5 L 10 29.5 L 3 29.5 L -3 29.5 Z" />
    <path d="M 20.875 5.5 L 20.375 5.5 L 20.375 -0.5 L 20.875 -0.5 A 0.125 0.125 0 0 1 21 -0.625 L 21 -3.5 L 21.875 -3.5 A 0.125 0.125 0 0 1 22 -3.625 L 22 -4.25 L 28 -4.25 L 28 -3.625 A 0.125 0.125 0 0 1 28.125 -3.5 L 29 -3.5 L 29 -0.625 A 0.125 0.125 0 0 1 29.125 -0.5 L 29.625 -0.5 L 29.625 5.5 L 29.125 5.5 A 0.125 0.125 0 0 1 29 5.625 L 29 8.5 L 28.125 8.5 A 0.125 0.125 0 0 1 28 8.625 L 28 9.25 L 22 9.25 L 22 8.625 A 0.125 0.125 0 0 1 21.875 8.5 L 21 8.5 L 21 5.625 A 0.125 0.125 0 0 1 20.875 5.5 Z" />
    <path d="M 28.125 -3.5 A 0.125 0.125 0 0 1 27.94007 -3.3903 A 0.125 0.125 0 1 1 28.125 -3.5 Z" />
</svg>