<svg version="1.1" xmlns="http://www.w3.org/2000/svg" viewBox="-11.000001 -5.625001 38.750002 27.625002000000002" fill="none" stroke="black" stroke-width="0.6%" vector-effect="non-scaling-stroke">
    <path d="M 10 3 L 10 4 L 3 4 L 3 4.625 L -3 4.625 L -3 4 L -10 4 L -10 3 L -10 -3 L -10 -4 L -3 -4 L -3 -4.625 L 3 -4.625 L 3 -4 L 10 -4 L 10 -3 L 10.005 -3 L 10.005 3 L 10 3 Z" />
    <path d="M -3 21 L -10 21 L -10 18 L -10 12 L -10 9 L -3 9 L 3 9 L 10 9 L 10 21 L 3 21 L -3 21 Z" />
    <path d="M 23 4.125 L 23 4.625 L 17 4.625 L 17 4.125 A 0.125 0.125 0 0 1 16.875 4 L 14 4 L 14 3.125 A 0.125 0.125 0 0 1 13.875 3 L 13.25 3 L 13.25 -3 L 13.875 -3 A 0.125 0.125 0 0 1 14 -3.125 L 14 -4 L 16.875 -4 A 0.125 0.125 0 0 1 17 -4.125 L 17 -4.625 L 23 -4.625 L 23 -4.125 A 0.125 0.125 0 0 1 23.125 -4 L 26 -4 L 26 -3.125 A 0.125 0.125 0 0 1 26.125 -3 L 26.75 -3 L 26.75 3 L 26.125 3 A 0.125 0.125 0 0 1 26 3.125 L 26 4 L 23.125 4 A 0.125 0.125 0 0 1 23 4.125 Z" />
</svg>