<svg version="1.1" xmlns="http://www.w3.org/2000/svg" viewBox="-11.000001 -5.625001 38.000002 27.625002000000002" fill="none" stroke="black" stroke-width="0.6%" vector-effect="non-scaling-stroke">
    <path d="M 5 9 L 10 9 L 10 21 L 5 21 L -5 21 L -10 21 L -10 9 L -5 9 L 5 9 Z" />
    <path d="M 5 -4 L 10 -4 L 10 4 L 5 4 L 5 4.625 L -5 4.625 L -5 4 L -10 4 L -10 -4 L -5 -4 L -5 -4.625 L 5 -4.625 L 5 -4 Z" />
    <path d="M 25 -4 L 26 -4 L 26 4 L 25 4 L 25 4.625 L 15 4.625 L 15 4 L 14 4 L 14 -4 L 15 -4 L 15 -4.625 L 25 -4.625 L 25 -4 Z" />
</svg>